<svg id="Layer_1" data-name="Layer 1" xmlns="http://www.w3.org/2000/svg" viewBox="0 0 156.29 12.77"><defs><style>.cls-1{fill:#595956;}</style></defs><title>LUXARITY V3</title><path class="cls-1" d="M7,12.6H0V0H1.78V11H7V12.6Z"/><path class="cls-1" d="M28.86,0V7.08a6.67,6.67,0,0,1-.36,2.23,5.17,5.17,0,0,1-1.12,1.82,4.55,4.55,0,0,1-3.56,1.63,4.61,4.61,0,0,1-3.54-1.57,5.59,5.59,0,0,1-1.5-4V0h1.78V7.1a4.93,4.93,0,0,0,.24,1.67A3.5,3.5,0,0,0,21.53,10a2.89,2.89,0,0,0,2.32,1.05A3,3,0,0,0,26.12,10a3.86,3.86,0,0,0,.71-1.27A5.12,5.12,0,0,0,27.08,7V0h1.78Z"/><path class="cls-1" d="M53.27,12.6H50.91l-3.63-5-3.63,5H41.32l4.61-6.44L41.59,0h2.32l3.37,4.68L50.61,0h2.32L48.59,6.16Z"/><path class="cls-1" d="M71,0l5.17,12.6H74.32L72.82,9,68,9,66.64,12.6H64.75L70,0H71ZM68.74,7.36h3.35L70.48,2.85Z"/><path class="cls-1" d="M95.42,12.6a46.26,46.26,0,0,0-2.66-5.06A2,2,0,0,0,91.26,7H89.88V12.6H88.12V0h3.39A6.64,6.64,0,0,1,93.3.21a4,4,0,0,1,1.39.64A3.08,3.08,0,0,1,95.59,2a3.72,3.72,0,0,1,.3,1.48A2.86,2.86,0,0,1,95.1,5.6,5.46,5.46,0,0,1,94,6.44L94.3,6.72a65.1,65.1,0,0,1,3.22,5.88h-2.1ZM93.88,4.27A1.84,1.84,0,0,0,94,3.45a1.5,1.5,0,0,0-.62-1.31,2.85,2.85,0,0,0-1.93-.51H89.88V5.34h1.52a4.61,4.61,0,0,0,1.18-.13,2.6,2.6,0,0,0,.82-0.36A1.71,1.71,0,0,0,93.88,4.27Z"/><path class="cls-1" d="M111.47,12.6h-1.76V0h1.76V12.6Z"/><path class="cls-1" d="M133.41,1.63h-3.48v11h-1.78v-11h-3.48V0h8.73V1.63Z"/><path class="cls-1" d="M156.29,0l-4.76,8.26V12.6h-1.78V8.26L145,0h2.23l3.41,6.12L154.05,0h2.23Z"/></svg>